<?xml version="1.0" standalone="no"?>
<!DOCTYPE svg PUBLIC "-//W3C//DTD SVG 20010904//EN"
 "http://www.w3.org/TR/2001/REC-SVG-20010904/DTD/svg10.dtd">
<svg version="1.0" xmlns="http://www.w3.org/2000/svg"
 width="15.000000pt" height="15.000000pt" viewBox="3 -5 45.000000 50.000000"
 preserveAspectRatio="xMidYMid meet">
<metadata>
Created by potrace 1.10, written by Peter Selinger 2001-2011
</metadata>
<g transform="translate(0.000000,50.000000) scale(0.100000,-0.100000)"
fill="#000000" stroke="none">
<path d="M47 454 c-4 -4 -7 -99 -7 -211 l0 -203 210 0 210 0 -2 208 -3 207
-201 3 c-110 1 -203 -1 -207 -4z m393 -34 c0 -19 -7 -20 -190 -20 -183 0 -190
1 -190 20 0 19 7 20 190 20 183 0 190 -1 190 -20z m0 -200 l0 -160 -190 0
-190 0 0 160 0 160 190 0 190 0 0 -160z"/>
<path d="M147 283 c-13 -12 -7 -40 13 -58 11 -10 20 -22 20 -27 0 -4 -9 -8
-20 -8 -11 0 -20 -5 -20 -11 0 -16 42 -6 54 13 8 13 5 22 -12 41 -27 29 -28
37 -2 37 11 0 20 5 20 10 0 11 -43 14 -53 3z"/>
<path d="M222 278 c-18 -18 -15 -36 8 -50 11 -7 20 -18 20 -25 0 -7 -9 -13
-20 -13 -11 0 -20 -5 -20 -11 0 -16 42 -6 54 13 8 13 5 22 -12 41 -27 29 -28
37 -2 37 11 0 20 5 20 10 0 14 -33 13 -48 -2z"/>
<path d="M290 230 c0 -33 4 -60 10 -60 6 0 10 11 10 25 0 16 6 25 15 25 9 0
15 -9 15 -25 0 -14 5 -25 10 -25 6 0 10 27 10 60 0 33 -4 60 -10 60 -5 0 -10
-11 -10 -25 0 -16 -6 -25 -15 -25 -9 0 -15 9 -15 25 0 14 -4 25 -10 25 -6 0
-10 -27 -10 -60z"/>
</g>
</svg>
