<?xml version="1.0" encoding="utf-8"?>
<!-- License: PD. Made by Mary Akveo: https://maryakveo.com/ -->
<svg fill="#000000" width="17px" height="" viewBox="0 0 24 24" id="submarine" data-name="Line Color" xmlns="http://www.w3.org/2000/svg" class="icon line-color"><line id="secondary-upstroke" x1="16.45" y1="15" x2="16.55" y2="15" style="fill: none; stroke: rgb(44, 169, 188); stroke-linecap: round; stroke-linejoin: round; stroke-width: 2;"></line><path id="secondary" d="M6.87,15H3m0,2V13" style="fill: none; stroke: rgb(44, 169, 188); stroke-linecap: round; stroke-linejoin: round; stroke-width: 2;"></path><path id="secondary-2" data-name="secondary" d="M17,5H16a1,1,0,0,0-1,1v5" style="fill: none; stroke: rgb(44, 169, 188); stroke-linecap: round; stroke-linejoin: round; stroke-width: 2;"></path><path id="primary" d="M11.94,11H17a4,4,0,0,1,4,4h0a4,4,0,0,1-4,4H11.94a3.92,3.92,0,0,1-1.78-.42l-2.61-1.3a1,1,0,0,1-.55-.9V13.62a1,1,0,0,1,.55-.9l2.61-1.3A3.92,3.92,0,0,1,11.94,11Z" style="fill: none; stroke: rgb(0, 0, 0); stroke-linecap: round; stroke-linejoin: round; stroke-width: 2;"></path></svg>